#!OML:ASF H:\LiuWeirdWalks\Patient Classification 1\Patient 1\Session 1\male.ASF
:FULLY-SPECIFIED
:DEGREES
404
root 0.989527 17.5354 27.2581 -3.08945 18.9129 -4.02635
lowerback 8.75677 -1.64154 0.523483
upperback -0.0862619 -1.91159 4.1245
thorax -4.88242 -0.903296 4.26102
lowerneck -19.5108 -4.93348 0.772954
upperneck 16.2698 -6.98581 0.0799167
head 8.22667 -3.24222 -0.974901
rclavicle 5.11871e-015 -7.95139e-015
rhumerus -39.0653 -24.2306 -58.7293
rradius 27.7299
rwrist 5.79252
rhand 2.05143 -0.425075
rfingers 7.12502
rthumb 27.5538 -28.4284
lclavicle 5.11871e-015 -7.95139e-015
lhumerus -44.6141 2.11185 84.0244
lradius 39.1327
lwrist -0.695203
lhand 0.477241 -10.7358
lfingers 7.12502
lthumb 26.0474 17.4985
rfemur -27.4856 -10.1535 22.972
rtibia 36.4004
rfoot 2.99232 -15.9491
rtoes -3.85226
lfemur -6.78563 -8.35717 -12.67
ltibia 70.9765
lfoot 3.67579 4.64506
ltoes -13.3614
405
root 0.991975 17.6061 27.4367 -3.31376 18.8268 -4.31972
lowerback 8.69312 -1.64701 0.87821
upperback 0.0638726 -1.88559 4.1972
thorax -4.70047 -0.900573 4.12572
lowerneck -19.8255 -5.07947 0.782245
upperneck 16.3913 -7.20339 0.123776
head 8.32208 -3.33468 -1.00066
rclavicle 2.62644e-014 5.56597e-015
rhumerus -39.4154 -24.7954 -59.0486
rradius 26.3909
rwrist 6.50652
rhand 1.28137 -0.791774
rfingers 7.12502
rthumb 26.8171 -28.9104
lclavicle 2.62644e-014 5.56597e-015
lhumerus -44.2296 -0.0756275 85.6501
lradius 42.3478
lwrist -2.44799
lhand 2.31744 -10.8168
lfingers 7.12502
lthumb 27.8081 17.1457
rfemur -26.265 -10.2041 23.4356
rtibia 35.5958
rfoot 2.77981 -16.1737
rtoes -3.73669
lfemur -8.40573 -8.01629 -12.5493
ltibia 71.6521
lfoot 2.77205 4.65834
ltoes -13.9195
406
root 0.994541 17.6706 27.6139 -3.54102 18.7794 -4.59729
lowerback 8.61846 -1.6665 1.19785
upperback 0.239695 -1.88469 4.26831
thorax -4.4829 -0.909059 4.01064
lowerneck -20.2133 -5.22984 0.740673
upperneck 16.5442 -7.43029 0.245302
head 8.44635 -3.42443 -0.997297
rclavicle 3.26255e-014 1.51076e-014
rhumerus -39.7359 -25.3407 -59.3727
rradius 25.1749
rwrist 7.02499
rhand 0.54534 -1.18621
rfingers 7.12502
rthumb 26.1126 -29.4109
lclavicle 3.26255e-014 1.51076e-014
lhumerus -43.9126 -2.00781 86.9613
lradius 45.7151
lwrist -3.91252
lhand 3.59367 -10.7882
lfingers 7.12502
lthumb 29.0277 16.9708
rfemur -25.0488 -10.3132 23.8757
rtibia 34.8112
rfoot 2.53078 -16.429
rtoes -3.55427
lfemur -9.9551 -7.69132 -12.4657
ltibia 72.1373
lfoot 1.8421 4.7479
ltoes -14.52
407
root 0.996278 17.7282 27.7903 -3.80431 18.6955 -4.94319
lowerback 8.52429 -1.6727 1.5419
upperback 0.454432 -1.86588 4.37509
thorax -4.2147 -0.908187 3.91536
lowerneck -20.6723 -5.38591 0.650043
upperneck 16.6981 -7.66005 0.408104
head 8.58773 -3.51255 -0.975733
rclavicle 4.27884e-014 7.15625e-015
rhumerus -40.0131 -25.8692 -59.68
rradius 24.0788
rwrist 7.36851
rhand -0.0921344 -1.59416
rfingers 7.12502
rthumb 25.5021 -29.9076
lclavicle 4.27884e-014 7.15625e-015
lhumerus -43.605 -3.7107 88.0293
lradius 49.1452
lwrist -5.09715
lhand 4.15375 -10.7117
lfingers 7.12502
lthumb 29.5625 16.9539
rfemur -23.8408 -10.3541 24.3855
rtibia 34.072
rfoot 2.25213 -16.7559
rtoes -3.332
lfemur -11.4161 -7.30427 -12.302
ltibia 72.4384
lfoot 0.891584 4.86929
ltoes -15.0938
408
root 0.999411 17.779 27.9647 -4.05638 18.5863 -5.24425
lowerback 8.45251 -1.66071 1.86837
upperback 0.648646 -1.82573 4.45724
thorax -3.98196 -0.895083 3.80357
lowerneck -21.0816 -5.56793 0.490768
upperneck 16.8767 -7.91833 0.632568
head 8.73568 -3.61056 -0.926408
rclavicle 2.31584e-014 -4.77083e-015
rhumerus -40.3643 -26.3246 -59.9635
rradius 23.1293
rwrist 7.57101
rhand -0.551211 -2.02222
rfingers 7.12502
rthumb 25.0623 -30.3978
lclavicle 2.31584e-014 -4.77083e-015
lhumerus -43.3748 -5.26326 88.8791
lradius 52.5772
lwrist -6.00196
lhand 3.96477 -10.6422
lfingers 7.12502
lthumb 29.3821 17.0552
rfemur -22.6774 -10.4174 24.8481
rtibia 33.4117
rfoot 1.94406 -17.0597
rtoes -3.1237
lfemur -12.7967 -6.88685 -12.2084
ltibia 72.5554
lfoot -0.0333772 5.05685
ltoes -15.5951
409
root 1.00533 17.8227 28.137 -4.28992 18.4445 -5.46879
lowerback 8.42544 -1.65545 2.09185
upperback 0.841989 -1.80306 4.55227
thorax -3.77056 -0.887842 3.7677
lowerneck -21.5606 -5.71943 0.329515
upperneck 17.0841 -8.12139 0.792751
head 8.90403 -3.6878 -0.894442
rclavicle 3.45388e-014 -1.43125e-014
rhumerus -40.6428 -26.5883 -60.2871
rradius 22.3113
rwrist 7.66839
rhand -0.788773 -2.45393
rfingers 7.12502
rthumb 24.8347 -30.8611
lclavicle 3.45388e-014 -1.43125e-014
lhumerus -43.1526 -6.53758 89.5465
lradius 55.9717
lwrist -6.68872
lhand 3.15737 -10.5569
lfingers 7.12502
lthumb 28.6109 17.2731
rfemur -21.5708 -10.5636 25.2308
rtibia 32.8526
rfoot 1.59255 -17.2881
rtoes -2.91797
lfemur -14.0839 -6.44343 -12.2299
ltibia 72.4915
lfoot -0.914408 5.3189
ltoes -16.0864
410
root 1.01034 17.86 28.3059 -4.50246 18.205 -5.67146
lowerback 8.46831 -1.62309 2.26571
upperback 1.00153 -1.74416 4.65644
thorax -3.63336 -0.860905 3.76931
lowerneck -22.0128 -5.86498 0.153971
upperneck 17.2959 -8.30115 0.908311
head 9.06878 -3.75975 -0.871996
rclavicle 1.07344e-014 1.43125e-014
rhumerus -40.9445 -26.7075 -60.6164
rradius 21.6386
rwrist 7.73415
rhand -0.760195 -2.85751
rfingers 7.12502
rthumb 24.862 -31.2609
lclavicle 1.07344e-014 1.43125e-014
lhumerus -42.9679 -7.64708 90.0637
lradius 59.3171
lwrist -7.04153
lhand 1.82326 -10.3925
lfingers 7.12502
lthumb 27.3356 17.6454
rfemur -20.566 -10.6173 25.6146
rtibia 32.4157
rfoot 1.21842 -17.5597
rtoes -2.70025
lfemur -15.329 -5.90468 -12.2581
ltibia 72.2635
lfoot -1.74728 5.59438
ltoes -16.4821
411
root 1.01593 17.8905 28.4698 -4.67824 17.8977 -5.80037
lowerback 8.58476 -1.57804 2.36873
upperback 1.13807 -1.67079 4.74752
thorax -3.56004 -0.825471 3.79914
lowerneck -22.4598 -5.98503 0.00375313
upperneck 17.5058 -8.43796 0.957993
head 9.22842 -3.81737 -0.870138
rclavicle -4.89507e-014 3.81667e-014
rhumerus -41.236 -26.7055 -60.9738
rradius 21.1128
rwrist 7.80068
rhand -0.461455 -3.22889
rfingers 7.12502
rthumb 25.1483 -31.5924
lclavicle -4.89507e-014 3.81667e-014
lhumerus -42.7796 -8.59397 90.4348
lradius 62.5986
lwrist -7.07669
lhand 0.120749 -10.1374
lfingers 7.12502
lthumb 25.706 18.1467
rfemur -19.6725 -10.6608 25.9365
rtibia 32.1056
rfoot 0.806855 -17.8297
rtoes -2.44609
lfemur -16.5308 -5.31901 -12.368
ltibia 71.8741
lfoot -2.50736 5.89361
ltoes -16.7833
412
root 1.02132 17.9152 28.631 -4.82817 17.517 -5.90117
lowerback 8.74279 -1.52725 2.42909
upperback 1.26254 -1.59099 4.83809
thorax -3.52151 -0.786165 3.85365
lowerneck -22.9016 -6.06751 -0.1008
upperneck 17.6811 -8.51739 0.929128
head 9.36949 -3.85524 -0.893363
rclavicle 1.68967e-015 -4.45278e-014
rhumerus -41.506 -26.6482 -61.3368
rradius 20.7234
rwrist 7.95542
rhand 0.107531 -3.55474
rfingers 7.12502
rthumb 25.6934 -31.8407
lclavicle 1.68967e-015 -4.45278e-014
lhumerus -42.5761 -9.38786 90.6604
lradius 65.8039
lwrist -6.83107
lhand -1.87743 -9.81343
lfingers 7.12502
lthumb 23.7909 18.7336
rfemur -18.8805 -10.659 26.2485
rtibia 31.9173
rfoot 0.360428 -18.1198
rtoes -2.20485
lfemur -17.6895 -4.69071 -12.496
ltibia 71.327
lfoot -3.20677 6.1906
ltoes -17.0484
413
root 1.02482 17.9343 28.7882 -4.96625 17.0406 -6.04172
lowerback 8.9429 -1.44163 2.56678
upperback 1.31633 -1.4521 4.90405
thorax -3.58556 -0.71817 3.83497
lowerneck -23.0805 -6.16466 -0.23245
upperneck 17.7799 -8.61067 0.928396
head 9.44121 -3.90316 -0.894921
rclavicle 2.10215e-014 3.97569e-014
rhumerus -41.9691 -26.5881 -61.6282
rradius 20.5095
rwrist 8.13014
rhand 0.880948 -3.83783
rfingers 7.12502
rthumb 26.4339 -32.0146
lclavicle 2.10215e-014 3.97569e-014
lhumerus -42.4965 -10.1676 90.7709
lradius 68.9701
lwrist -6.28595
lhand -4.09352 -9.4131
lfingers 7.12502
lthumb 21.6641 19.3948
rfemur -18.2049 -10.5043 26.631
rtibia 31.8563
rfoot -0.11539 -18.5055
rtoes -1.98852
lfemur -18.831 -4.00828 -12.5415
ltibia 70.6239
lfoot -3.82173 6.42807
ltoes -17.2109
414
root 1.0287 17.9484 28.9441 -5.06916 16.5034 -6.15725
lowerback 9.11565 -1.32758 2.75947
upperback 1.30936 -1.27038 4.91163
thorax -3.70179 -0.630005 3.71853
lowerneck -22.9589 -6.28372 -0.405278
upperneck 17.7904 -8.73193 0.989732
head 9.43533 -3.96533 -0.861286
rclavicle 1.49089e-014 -3.89618e-014
rhumerus -42.6316 -26.5682 -61.8419
rradius 20.4528
rwrist 8.30212
rhand 1.78273 -4.10926
rfingers 7.12502
rthumb 27.2968 -32.1533
lclavicle 1.49089e-014 -3.89618e-014
lhumerus -42.5345 -10.9652 90.7668
lradius 72.0791
lwrist -5.52302
lhand -6.44756 -8.98951
lfingers 7.12502
lthumb 19.4021 20.0625
rfemur -17.6331 -10.2846 26.9994
rtibia 31.9236
rfoot -0.628839 -18.9062
rtoes -1.81399
lfemur -19.9221 -3.32952 -12.5998
ltibia 69.7497
lfoot -4.34407 6.63594
ltoes -17.3574
415
root 1.03585 17.958 29.0982 -5.0957 15.9568 -6.16837
lowerback 9.23815 -1.19674 2.96926
upperback 1.20506 -1.06571 4.83441
thorax -3.89322 -0.531783 3.50016
lowerneck -22.4217 -6.42486 -0.636549
upperneck 17.6749 -8.8781 1.11892
head 9.32004 -4.04341 -0.782306
rclavicle 4.27387e-015 -5.56597e-015
rhumerus -43.5452 -26.5588 -61.948
rradius 20.5357
rwrist 8.39531
rhand 2.69697 -4.34805
rfingers 7.12502
rthumb 28.171 -32.2514
lclavicle 4.27387e-015 -5.56597e-015
lhumerus -42.7641 -11.7784 90.6836
lradius 75.159
lwrist -4.56778
lhand -8.89798 -8.56752
lfingers 7.12502
lthumb 17.0446 20.7047
rfemur -17.1794 -10.1243 27.2488
rtibia 32.1199
rfoot -1.1876 -19.2154
rtoes -1.69943
lfemur -20.9776 -2.72853 -12.7831
ltibia 68.6949
lfoot -4.76149 6.848
ltoes -17.5514
416
root 1.04417 17.9638 29.2514 -5.02509 15.3785 -6.02348
lowerback 9.29553 -1.02754 3.12872
upperback 1.02578 -0.81978 4.65636
thorax -4.12666 -0.414356 3.19764
lowerneck -21.5716 -6.60363 -0.952852
upperneck 17.4933 -9.07732 1.36069
head 9.13878 -4.1448 -0.647261
rclavicle -2.9271e-014 6.2816e-014
rhumerus -44.6646 -26.6149 -61.96
rradius 20.7278
rwrist 8.39056
rhand 3.55748 -4.58378
rfingers 7.12502
rthumb 28.9931 -32.3487
lclavicle -2.9271e-014 6.2816e-014
lhumerus -43.1231 -12.6451 90.5234
lradius 78.1874
lwrist -3.38987
lhand -11.3733 -8.17347
lfingers 7.12502
lthumb 14.6609 21.2882
rfemur -16.8487 -9.9156 27.3347
rtibia 32.4441
rfoot -1.77523 -19.4919
rtoes -1.63613
lfemur -22.0001 -2.18976 -13.1254
ltibia 67.4515
lfoot -5.08769 7.06308
ltoes -17.7257
417
root 1.05465 17.9653 29.4032 -4.86044 14.7814 -5.7607
lowerback 9.28734 -0.868521 3.17291
upperback 0.848234 -0.605137 4.45552
thorax -4.31687 -0.311744 2.93756
lowerneck -20.7779 -6.73886 -1.24468
upperneck 17.3104 -9.22177 1.57396
head 8.96482 -4.22237 -0.519399
rclavicle -1.78161e-014 2.06736e-014
rhumerus -45.6587 -26.6303 -62.0089
rradius 20.9706
rwrist 8.17606
rhand 4.34831 -4.9131
rfingers 7.12502
rthumb 29.7482 -32.5457
lclavicle -1.78161e-014 2.06736e-014
lhumerus -43.4268 -13.3498 90.2631
lradius 81.1406
lwrist -2.03909
lhand -13.8194 -7.8969
lfingers 7.12502
lthumb 12.3032 21.7211
rfemur -16.6463 -9.71681 27.287
rtibia 32.8872
rfoot -2.42369 -19.6972
rtoes -1.55617
lfemur -22.9989 -1.73899 -13.587
ltibia 66.0253
lfoot -5.35785 7.28703
ltoes -17.9613
418
root 1.06655 17.9636 29.5533 -4.60562 14.1647 -5.39589
lowerback 9.21456 -0.714376 3.10458
upperback 0.663359 -0.413811 4.23658
thorax -4.47535 -0.219325 2.72324
lowerneck -20.0116 -6.83907 -1.51327
upperneck 17.1356 -9.3247 1.76749
head 8.79664 -4.28125 -0.396948
rclavicle -3.37188e-014 4.92986e-014
rhumerus -46.5558 -26.635 -62.0549
rradius 21.2034
rwrist 7.92542
rhand 4.94708 -5.17261
rfingers 7.12502
rthumb 30.3195 -32.7015
lclavicle -3.37188e-014 4.92986e-014
lhumerus -43.6908 -13.9057 89.9122
lradius 84.0277
lwrist -0.539768
lhand -16.1405 -7.74484
lfingers 7.12502
lthumb 10.0646 21.9945
rfemur -16.5507 -9.50684 27.1262
rtibia 33.4056
rfoot -3.12921 -19.8542
rtoes -1.44879
lfemur -23.9871 -1.38125 -14.138
ltibia 64.4287
lfoot -5.61143 7.51521
ltoes -18.1607
